<?xml version="1.0" encoding="UTF-8" standalone="no"?>
<!-- Created with Inkscape (http://www.inkscape.org/) -->

<svg
   version="1.1"
   id="svg1"
   width="395.71112"
   height="410.823"
   viewBox="0 0 395.71112 410.823"
   sodipodi:docname="Logo-Colored.svg"
   inkscape:version="1.4.3 (0d15f75, 2025-12-25)"
   inkscape:export-filename="Logo-Colored.png"
   inkscape:export-xdpi="96"
   inkscape:export-ydpi="96"
   xmlns:inkscape="http://www.inkscape.org/namespaces/inkscape"
   xmlns:sodipodi="http://sodipodi.sourceforge.net/DTD/sodipodi-0.dtd"
   xmlns="http://www.w3.org/2000/svg"
   xmlns:svg="http://www.w3.org/2000/svg">
  <defs
     id="defs1" />
  <sodipodi:namedview
     id="namedview1"
     pagecolor="#ffffff"
     bordercolor="#000000"
     borderopacity="0.25"
     inkscape:showpageshadow="2"
     inkscape:pageopacity="0.0"
     inkscape:pagecheckerboard="0"
     inkscape:deskcolor="#d1d1d1"
     inkscape:zoom="1.6710922"
     inkscape:cx="217.52241"
     inkscape:cy="158.87813"
     inkscape:window-width="1418"
     inkscape:window-height="1492"
     inkscape:window-x="3543"
     inkscape:window-y="0"
     inkscape:window-maximized="0"
     inkscape:current-layer="g1" />
  <g
     inkscape:groupmode="layer"
     inkscape:label="Image"
     id="g1"
     transform="translate(-505.88645,-122.11743)">
    <path
       style="fill:#5765f2;fill-opacity:1;stroke:none;stroke-opacity:1"
       d="m 694.74592,210.96846 c -9.53176,-2.38391 -21.87352,-11.52868 -27.4809,-20.36231 -5.9561,-9.38298 -8.37272,-22.73378 -5.8778,-32.47238 4.55269,-17.77089 15.83525,-29.69111 32.4683,-34.30331 28.95582,-8.02921 57.07682,13.14804 57.13261,43.0252 0.0338,18.07951 -9.12323,32.65382 -25.64741,40.82051 -7.02243,3.47067 -8.36593,3.78242 -17.22854,3.9977 -5.2867,0.12842 -11.30151,-0.18902 -13.36626,-0.70541 z"
       id="path10" />
    <path
       style="fill:#57f287;fill-opacity:1"
       d="m 713.5,197.64391 c 7.00549,-1.86677 10.36846,-3.82381 15.14542,-8.8137 6.69393,-6.99232 8.75741,-11.99125 8.80478,-21.33021 0.0344,-6.78237 -0.38496,-8.86796 -2.75518,-13.70261 -3.97653,-8.1111 -10.83043,-13.94704 -19.74696,-16.81409 -6.37016,-2.04828 -7.79577,-2.17866 -13.07895,-1.19615 -11.58049,2.15362 -20.63712,9.00831 -25.15249,19.03718 -3.02794,6.7252 -2.98373,17.933 0.0973,24.67567 3.95717,8.65995 11.97536,15.54508 20.99681,18.02969 6.17319,1.70017 9.64276,1.72543 15.68924,0.11422 z"
       id="path9" />
    <path
       style="fill:#5865f2;fill-opacity:1"
       d="m 581.5,278.65881 c -9.17753,-5.86575 -20.06919,-9.01269 -31.25,-9.02908 -4.5375,-0.007 -8.25,-0.39572 -8.25,-0.86458 0,-2.32076 7.72143,-21.26683 11.69277,-28.69056 14.20739,-26.55824 32.55543,-46.6421 58.60509,-64.14943 9.56019,-6.42516 32.46255,-18.92476 34.67582,-18.92528 0.28948,-7e-5 0.52632,4.38743 0.52632,9.75 0,11.75394 2.46156,20.54141 8.47372,30.25012 2.21384,3.575 4.02541,6.80718 4.02572,7.18261 3.1e-4,0.37544 -0.86287,0.95666 -1.91818,1.2916 -4.28914,1.36132 -21.15824,12.27183 -29.86724,19.31737 -9.37549,7.58474 -18.30756,17.50935 -26.04359,28.9376 -4.21382,6.22496 -12.37095,22.10559 -13.42502,26.13637 -0.7138,2.72957 -1.21809,2.64558 -7.24541,-1.20674 z"
       id="path8" />
    <path
       style="fill:#5865f2;fill-opacity:1"
       d="m 897.5,284.29411 c -14.64142,-3.4692 -82.07435,-19.53792 -98.25,-23.41219 -11.6875,-2.7993 -21.25,-5.45296 -21.25,-5.89702 0,-0.44407 6.75,-6.49746 15,-13.45199 8.25,-6.95453 15,-12.98119 15,-13.39259 0,-2.57157 -18.31854,-15.78523 -29.82746,-21.51535 -3.6699,-1.82719 -10.04754,-4.60209 -14.17254,-6.16644 -4.125,-1.56435 -7.60053,-2.89551 -7.7234,-2.95814 -0.12287,-0.0626 1.31165,-3.68833 3.18782,-8.05713 5.39593,-12.5648 6.34724,-24.52378 3.00234,-37.74263 -0.67715,-2.67603 -0.58187,-2.76903 2.16244,-2.11079 6.09682,1.46237 24.25869,8.29907 32.3708,12.18539 15.8627,7.59945 28.95814,16.0482 41.34113,26.67195 l 5.84114,5.01129 3.65886,-4.01531 c 2.01238,-2.20842 8.54439,-9.76355 14.51559,-16.78919 5.97119,-7.02563 11.03748,-12.59311 11.25841,-12.37217 0.22093,0.22093 1.69924,6.21041 3.28512,13.30995 5.92212,26.51168 11.12196,49.42612 15.06962,66.40825 4.88276,21.00474 8.54526,37.31845 9.37305,41.75 0.62739,3.35872 0.35529,3.53885 -3.84292,2.54411 z"
       id="path7" />
    <path
       style="fill:#5765f2;fill-opacity:1;stroke:none;stroke-opacity:1"
       d="m 541.10833,371.98488 c -29.63823,-6.26931 -44.56301,-40.67761 -28.92453,-66.68398 9.55853,-15.89557 27.57585,-24.39596 45.74756,-21.58324 21.88704,3.3878 37.99048,22.14428 38.05302,44.32224 0.0348,12.3493 -4.89703,23.71083 -14.10499,32.49374 -8.38952,8.00224 -16.39007,11.48142 -27.55667,11.98351 -4.85249,0.21818 -10.79897,-0.0213 -13.21439,-0.53227 z"
       id="path6" />
    <path
       style="fill:#57f287;fill-opacity:1"
       d="m 564.00204,356.90378 c 5.91428,-2.54426 13.22269,-10.04157 16.22543,-16.64483 1.61655,-3.55491 2.15684,-6.65649 2.1355,-12.25895 -0.0373,-9.7845 -3.08263,-16.76617 -10.03858,-23.01403 -15.92024,-14.29962 -40.55676,-9.46756 -50.02403,9.81142 -5.58826,11.37985 -3.01371,26.01296 6.25603,35.5577 8.95081,9.21636 23.14746,11.83923 35.44565,6.54869 z"
       id="path5" />
    <path
       style="fill:#5865f2;fill-opacity:1"
       d="m 633.24359,490.54516 c -20.03605,-9.75371 -32.27136,-18.56655 -49.33514,-35.53507 -10.95052,-10.88938 -16.3812,-17.21096 -21.76362,-25.33392 -7.76081,-11.71234 -14.47072,-24.90231 -18.56735,-36.49871 l -2.58682,-7.32254 5.25467,0.64416 c 10.8701,1.33254 25.37873,-2.55108 35.9393,-9.6201 l 5.68462,-3.80517 1.18902,3.71309 c 4.51246,14.09166 20.63301,36.64108 35.24988,49.30751 10.18461,8.8256 23.4832,17.79894 30.98834,20.90965 3.13693,1.30018 5.70351,2.75585 5.70351,3.23482 0,0.47897 -1.7899,3.5066 -3.97755,6.72806 -6.01568,8.85849 -9.27891,19.53043 -9.41257,30.78257 -0.0604,5.08722 -0.33488,9.24938 -0.60988,9.24924 -0.275,-1.4e-4 -6.46539,-2.90426 -13.75641,-6.45359 z"
       id="path4" />
    <path
       style="fill:#5865f2;fill-opacity:1"
       d="m 762.70469,501.25 c 0.43742,-2.0625 0.75697,-8.25 0.71012,-13.75 -0.0874,-10.25391 -1.77484,-18.19193 -5.51394,-25.93783 C 756.85539,459.39636 756,457.33325 756,456.97747 c 0,-0.35578 3.7125,-1.89633 8.25,-3.42346 13.05091,-4.39236 29.46575,-13.91042 41.14651,-23.85858 l 3.8965,-3.31854 -15.6465,-13.76394 C 785.04093,405.04278 778,398.46874 778,398.00396 c 0,-0.46478 1.4625,-1.1377 3.25,-1.49539 6.40312,-1.28128 53.37033,-11.58164 59.25,-12.99409 5.35825,-1.28719 26.89596,-6.1466 51.84193,-11.69674 4.86306,-1.08197 8.99901,-1.81013 9.191,-1.61814 1.01809,1.01809 -27.7936,121.20911 -29.50951,123.10202 -0.39967,0.4409 -5.36734,-4.7341 -11.03926,-11.5 -5.67193,-6.76589 -12.11145,-14.19278 -14.31005,-16.5042 l -3.99745,-4.20259 -5.44359,4.97513 c -16.69821,15.26122 -37.48668,27.32619 -60.12206,34.89293 -15.25122,5.0983 -15.42744,5.10181 -14.40632,0.28711 z"
       id="path3" />
    <path
       style="fill:#5765f2;fill-opacity:1;stroke:none;stroke-opacity:1"
       d="m 694.61774,531.8877 c -11.46456,-2.69143 -24.28404,-13.67615 -29.85583,-25.5828 -6.45993,-13.80454 -4.61509,-31.4923 4.58864,-43.99469 7.93339,-10.77674 17.43954,-16.69201 29.93259,-18.62575 14.20175,-2.19823 28.07758,2.43756 38.21686,12.7679 14.27656,14.54558 17.51414,34.84287 8.40919,52.71958 -2.82606,5.5487 -12.13509,15.08888 -17.65458,18.09297 -9.4913,5.16581 -23.26213,7.05837 -33.63687,4.62279 z"
       id="path2" />
    <path
       style="fill:#57f287;fill-opacity:1"
       d="m 715.29799,517.98968 c 8.15714,-2.51948 15.28342,-8.65616 19.3193,-16.6365 3.85558,-7.62381 3.9966,-18.23344 0.34362,-25.85318 -8.34684,-17.4107 -30.04965,-23.99895 -46.00321,-13.96505 -4.76299,2.99566 -9.79442,8.87694 -12.33136,14.41424 -2.98354,6.51211 -2.89469,17.77405 0.1937,24.55081 3.93562,8.6358 12.19941,15.72928 21.13052,18.13802 6.51534,1.7572 9.97821,1.62778 17.34743,-0.64834 z"
       id="path1" />
  </g>
</svg>
